<svg width="113" height="25" viewBox="0 0 113 25" fill="none" xmlns="http://www.w3.org/2000/svg">
    <path
        d="M41.5839 22.336C38.8239 22.336 36.0879 21.592 34.5039 20.488L36.0639 16.984C37.5519 17.968 39.6639 18.64 41.6079 18.64C43.5759 18.64 44.3439 18.088 44.3439 17.272C44.3439 14.608 34.7919 16.552 34.7919 10.312C34.7919 7.31199 37.2399 4.86399 42.2319 4.86399C44.4159 4.86399 46.6719 5.36799 48.3279 6.32799L46.8639 9.85599C45.2559 8.99199 43.6719 8.55999 42.2079 8.55999C40.2159 8.55999 39.4959 9.23199 39.4959 10.072C39.4959 12.64 49.0239 10.72 49.0239 16.912C49.0239 19.84 46.5759 22.336 41.5839 22.336Z"
        fill="black"
    />
    <path
        d="M56.547 8.77599C60.771 8.77599 63.195 10.648 63.195 14.776V22H58.947V20.32C58.299 21.568 57.003 22.216 55.107 22.216C51.987 22.216 50.259 20.464 50.259 18.208C50.259 15.808 52.011 14.32 56.043 14.32H58.635C58.563 13 57.675 12.256 55.875 12.256C54.627 12.256 53.235 12.688 52.347 13.384L50.811 10.288C52.299 9.30399 54.507 8.77599 56.547 8.77599ZM56.379 19.336C57.387 19.336 58.275 18.856 58.635 17.824V16.696H56.667C55.203 16.696 54.675 17.224 54.675 18.016C54.675 18.784 55.299 19.336 56.379 19.336Z"
        fill="black" />
    <path
        d="M74.2573 8.77599C77.7853 8.77599 80.6413 11.344 80.6413 15.472C80.6413 19.624 77.7853 22.216 74.2573 22.216C72.5533 22.216 71.2813 21.736 70.4173 20.704V22H66.0733V4.19199H70.6333V10.12C71.5213 9.20799 72.7453 8.77599 74.2573 8.77599ZM73.2973 18.592C74.8333 18.592 76.0333 17.464 76.0333 15.472C76.0333 13.504 74.8333 12.4 73.2973 12.4C71.7613 12.4 70.5613 13.504 70.5613 15.472C70.5613 17.464 71.7613 18.592 73.2973 18.592Z"
        fill="black" />
    <path
        d="M88.0235 8.77599C92.2475 8.77599 94.6715 10.648 94.6715 14.776V22H90.4235V20.32C89.7755 21.568 88.4795 22.216 86.5835 22.216C83.4635 22.216 81.7355 20.464 81.7355 18.208C81.7355 15.808 83.4875 14.32 87.5195 14.32H90.1115C90.0395 13 89.1515 12.256 87.3515 12.256C86.1035 12.256 84.7115 12.688 83.8235 13.384L82.2875 10.288C83.7755 9.30399 85.9835 8.77599 88.0235 8.77599ZM87.8555 19.336C88.8635 19.336 89.7515 18.856 90.1115 17.824V16.696H88.1435C86.6795 16.696 86.1515 17.224 86.1515 18.016C86.1515 18.784 86.7755 19.336 87.8555 19.336Z"
        fill="black" />
    <path
        d="M107.102 22L103.454 17.44L102.11 18.808V22H97.5498V4.19199H102.11V13.528L106.766 8.99199H112.166L106.766 14.56L112.622 22H107.102Z"
        fill="black" />
    <path
        d="M11.6541 15.3826C12.0448 14.6947 13.0214 14.6947 13.4121 15.3826L17.9956 23.4524C18.3863 24.1402 17.8979 25 17.1166 25H7.94963C7.16828 25 6.67993 24.1402 7.0706 23.4524L11.6541 15.3826Z"
        fill="#30A46C" />
    <path
        d="M4.72097 22.8841C5.11165 23.572 6.08834 23.572 6.47902 22.8841L11.0625 14.8143C11.4532 14.1265 10.9648 13.2667 10.1835 13.2667H1.01652C0.23517 13.2667 -0.253177 14.1265 0.137499 14.8143L4.72097 22.8841Z"
        fill="#30A46C" />
    <path
        d="M18.5877 22.8841C18.9783 23.572 19.955 23.572 20.3457 22.8841L24.9292 14.8143C25.3199 14.1265 24.8315 13.2667 24.0502 13.2667H14.8832C14.1019 13.2667 13.6135 14.1265 14.0042 14.8143L18.5877 22.8841Z"
        fill="#30A46C" />
    <path
        d="M11.6541 10.6175C12.0448 11.3053 13.0214 11.3053 13.4121 10.6175L17.9956 2.54764C18.3863 1.85981 17.8979 1.00001 17.1166 1.00001H7.94963C7.16828 1.00001 6.67993 1.85981 7.0706 2.54764L11.6541 10.6175Z"
        fill="#30A46C" />
    <path
        d="M4.72097 3.11592C5.11165 2.42808 6.08834 2.42808 6.47902 3.11591L11.0625 11.1857C11.4532 11.8736 10.9648 12.7334 10.1835 12.7334H1.01652C0.23517 12.7334 -0.253177 11.8736 0.137499 11.1857L4.72097 3.11592Z"
        fill="#30A46C" />
    <path
        d="M22.721 0.515879C23.1116 -0.171959 24.0883 -0.17196 24.479 0.515878L29.0625 8.58569C29.4532 9.27353 28.9648 10.1333 28.1835 10.1333H19.0165C18.2352 10.1333 17.7468 9.27353 18.1375 8.58569L22.721 0.515879Z"
        fill="#ED6C02" />
</svg>